<svg xmlns="http://www.w3.org/2000/svg" width="400" height="200" viewBox="0 0 400 200" role="img" aria-label="Languages">
<title>Languages</title>
<style>text{font-family:-apple-system,BlinkMacSystemFont,'Segoe UI','Noto Sans',Helvetica,Arial,sans-serif}.h{font-size:16px;font-weight:600;fill:#1f2328}.n{font-size:13px;fill:#1f2328}.p{font-size:13px;fill:#59636e}.v{font-size:26px;font-weight:600;fill:#1f2328}.l{font-size:12px;fill:#59636e}</style>
<rect x="0.5" y="0.5" width="399" height="199" rx="6" fill="#ffffff" stroke="#d0d7de"/>
<text class="h" x="24" y="36">Languages</text>
<clipPath id="bar"><rect x="24" y="52" width="352" height="8" rx="4"/></clipPath>
<g clip-path="url(#bar)">
<rect x="24.00" y="52" width="124.85" height="8" fill="#3572A5"/>
<rect x="148.85" y="52" width="115.02" height="8" fill="#3178c6"/>
<rect x="263.88" y="52" width="47.40" height="8" fill="#41b883"/>
<rect x="311.27" y="52" width="30.71" height="8" fill="#b07219"/>
<rect x="341.99" y="52" width="15.44" height="8" fill="#f1e05a"/>
<rect x="357.43" y="52" width="6.51" height="8" fill="#e34c26"/>
<rect x="363.94" y="52" width="2.76" height="8" fill="#663399"/>
<rect x="366.71" y="52" width="1.98" height="8" fill="#89e051"/>
<rect x="368.69" y="52" width="7.31" height="8" fill="#8b949e"/>
<rect x="147.85" y="52" width="2" height="8" fill="#ffffff"/>
<rect x="262.88" y="52" width="2" height="8" fill="#ffffff"/>
<rect x="310.27" y="52" width="2" height="8" fill="#ffffff"/>
<rect x="340.99" y="52" width="2" height="8" fill="#ffffff"/>
<rect x="356.43" y="52" width="2" height="8" fill="#ffffff"/>
<rect x="362.94" y="52" width="2" height="8" fill="#ffffff"/>
<rect x="365.71" y="52" width="2" height="8" fill="#ffffff"/>
<rect x="367.69" y="52" width="2" height="8" fill="#ffffff"/>
</g>
<circle cx="29" cy="87.5" r="5" fill="#3572A5"/>
<text class="n" x="40" y="92">Python</text>
<text class="p" x="184" y="92" text-anchor="end">35.5%</text>
<circle cx="29" cy="109.5" r="5" fill="#3178c6"/>
<text class="n" x="40" y="114">TypeScript</text>
<text class="p" x="184" y="114" text-anchor="end">32.7%</text>
<circle cx="29" cy="131.5" r="5" fill="#41b883"/>
<text class="n" x="40" y="136">Vue</text>
<text class="p" x="184" y="136" text-anchor="end">13.5%</text>
<circle cx="29" cy="153.5" r="5" fill="#b07219"/>
<text class="n" x="40" y="158">Java</text>
<text class="p" x="184" y="158" text-anchor="end">8.7%</text>
<circle cx="29" cy="175.5" r="5" fill="#f1e05a"/>
<text class="n" x="40" y="180">JavaScript</text>
<text class="p" x="184" y="180" text-anchor="end">4.4%</text>
<circle cx="213" cy="87.5" r="5" fill="#e34c26"/>
<text class="n" x="224" y="92">HTML</text>
<text class="p" x="368" y="92" text-anchor="end">1.9%</text>
<circle cx="213" cy="109.5" r="5" fill="#663399"/>
<text class="n" x="224" y="114">CSS</text>
<text class="p" x="368" y="114" text-anchor="end">0.8%</text>
<circle cx="213" cy="131.5" r="5" fill="#89e051"/>
<text class="n" x="224" y="136">Shell</text>
<text class="p" x="368" y="136" text-anchor="end">0.6%</text>
<circle cx="213" cy="153.5" r="5" fill="#8b949e"/>
<text class="n" x="224" y="158">Other</text>
<text class="p" x="368" y="158" text-anchor="end">2.1%</text>
</svg>
